<?xml version="1.0" encoding="utf-8"?>
<!-- Generator: Adobe Illustrator 23.0.6, SVG Export Plug-In . SVG Version: 6.00 Build 0)  -->
<svg version="1.1" id="Layer_1" xmlns="http://www.w3.org/2000/svg" xmlns:xlink="http://www.w3.org/1999/xlink" x="0px" y="0px"
	 viewBox="0 0 255.09 255.09" style="enable-background:new 0 0 255.09 255.09;" xml:space="preserve">
<style type="text/css">
	.st0{clip-path:url(#SVGID_2_);fill:none;stroke:#231F20;stroke-width:7;stroke-miterlimit:10;}
</style>
<g>
	<defs>
		<rect id="SVGID_1_" x="11.97" y="13.31" width="227.92" height="227.92"/>
	</defs>
	<clipPath id="SVGID_2_">
		<use xlink:href="#SVGID_1_"  style="overflow:visible;"/>
	</clipPath>
	<path class="st0" d="M77.12,349.42L77.12,349.42c-19.12,0-34.76-15.64-34.76-34.76V-58.09c0-19.12,15.64-34.76,34.76-34.76h0
		c19.12,0,34.76,15.64,34.76,34.76v372.75C111.89,333.78,96.24,349.42,77.12,349.42z"/>
	<path class="st0" d="M-37.03,241.04L-37.03,241.04c-11.87-11.87-11.87-31.31,0-43.18L257.36-96.52c11.87-11.87,31.31-11.87,43.18,0
		l0,0c11.87,11.87,11.87,31.31,0,43.18L6.15,241.04C-5.72,252.92-25.15,252.92-37.03,241.04z"/>
	<path class="st0" d="M-62.53-1.37L-62.53-1.37C-46.9-17-21.33-17-5.7-1.37l304.75,304.75c15.63,15.63,15.63,41.21,0,56.84l0,0
		c-15.63,15.63-41.21,15.63-56.84,0L-62.53,55.47C-78.16,39.84-78.16,14.26-62.53-1.37z"/>
	<use xlink:href="#SVGID_1_"  style="overflow:visible;fill:none;stroke:#231F20;stroke-width:7;stroke-miterlimit:10;"/>
</g>
</svg>
