<?xml version="1.0" encoding="utf-8"?>
<!-- Generator: Adobe Illustrator 23.0.4, SVG Export Plug-In . SVG Version: 6.00 Build 0)  -->
<svg version="1.1" id="Layer_1" xmlns="http://www.w3.org/2000/svg" xmlns:xlink="http://www.w3.org/1999/xlink" x="0px" y="0px"
	 viewBox="0 0 227.92 227.92" style="enable-background:new 0 0 227.92 227.92;" xml:space="preserve">
<style type="text/css">
	.st0{clip-path:url(#SVGID_2_);fill:#FF8300;}
	.st1{clip-path:url(#SVGID_4_);fill:#0082CA;}
	.st2{clip-path:url(#SVGID_6_);fill:#D64123;}
</style>
<g>
	<g>
		<defs>
			<rect id="SVGID_1_" width="227.92" height="227.92"/>
		</defs>
		<clipPath id="SVGID_2_">
			<use xlink:href="#SVGID_1_"  style="overflow:visible;"/>
		</clipPath>
		<path class="st0" d="M65.15,336.11L65.15,336.11c-19.12,0-34.76-15.64-34.76-34.76V-71.4c0-19.12,15.64-34.76,34.76-34.76l0,0
			c19.12,0,34.76,15.64,34.76,34.76v372.75C99.91,320.47,84.27,336.11,65.15,336.11z"/>
	</g>
	<g>
		<defs>
			<rect id="SVGID_3_" width="227.92" height="227.92"/>
		</defs>
		<clipPath id="SVGID_4_">
			<use xlink:href="#SVGID_3_"  style="overflow:visible;"/>
		</clipPath>
		<path class="st1" d="M-49,227.73L-49,227.73c-11.87-11.87-11.87-31.31,0-43.18l294.38-294.38c11.87-11.87,31.31-11.87,43.18,0l0,0
			c11.87,11.87,11.87,31.31,0,43.18L-5.82,227.73C-17.69,239.6-37.12,239.6-49,227.73z"/>
	</g>
	<g>
		<defs>
			<rect id="SVGID_5_" width="227.92" height="227.92"/>
		</defs>
		<clipPath id="SVGID_6_">
			<use xlink:href="#SVGID_5_"  style="overflow:visible;"/>
		</clipPath>
		<path class="st2" d="M-61.01-1.19L-61.01-1.19c15.63-15.63,41.21-15.63,56.84,0l304.75,304.75c15.63,15.63,15.63,41.21,0,56.84
			l0,0c-15.63,15.63-41.21,15.63-56.84,0L-61.01,55.65C-76.64,40.02-76.64,14.44-61.01-1.19z"/>
	</g>
</g>
</svg>
